<svg xmlns="http://www.w3.org/2000/svg" shape-rendering="geometricPrecision" text-rendering="geometricPrecision" image-rendering="optimizeQuality" fill="currentColor" fill-rule="evenodd" clip-rule="evenodd" zoomAndPan="magnify" preserveAspectRatio="xMidYMid meet" version="1.2" viewBox="568.13 243 303.75 324"><defs><clipPath id="19803a20b5"><path d="M 568.125 384 L 871.875 384 L 871.875 567 L 568.125 567 Z M 568.125 384 "></path></clipPath><clipPath id="47458055ab"><path d="M 568.125 243 L 871.875 243 L 871.875 365 L 568.125 365 Z M 568.125 243 "></path></clipPath></defs><g id="f8c13798bc"><g clip-rule="nonzero" clip-path="url(#19803a20b5)"><path d="M 851.625 536.625 C 851.625 537.289062 851.558594 537.949219 851.429688 538.601562 C 851.300781 539.253906 851.109375 539.886719 850.855469 540.5 C 850.601562 541.113281 850.289062 541.699219 849.917969 542.25 C 849.550781 542.804688 849.128906 543.3125 848.660156 543.785156 C 848.1875 544.253906 847.679688 544.675781 847.125 545.042969 C 846.574219 545.414062 845.988281 545.726562 845.375 545.980469 C 844.761719 546.234375 844.128906 546.425781 843.476562 546.554688 C 842.824219 546.683594 842.164062 546.75 841.5 546.75 L 598.5 546.75 C 597.835938 546.75 597.175781 546.683594 596.523438 546.554688 C 595.871094 546.425781 595.238281 546.234375 594.625 545.980469 C 594.011719 545.726562 593.425781 545.414062 592.875 545.042969 C 592.320312 544.675781 591.8125 544.253906 591.339844 543.785156 C 590.871094 543.3125 590.449219 542.804688 590.082031 542.25 C 589.710938 541.699219 589.398438 541.113281 589.144531 540.5 C 588.890625 539.886719 588.699219 539.253906 588.570312 538.601562 C 588.441406 537.949219 588.375 537.289062 588.375 536.625 L 588.375 384.75 L 568.125 384.75 L 568.125 536.625 C 568.125 537.621094 568.171875 538.613281 568.269531 539.601562 C 568.367188 540.59375 568.515625 541.574219 568.707031 542.550781 C 568.902344 543.527344 569.144531 544.492188 569.433594 545.441406 C 569.722656 546.394531 570.054688 547.328125 570.4375 548.25 C 570.816406 549.167969 571.242188 550.066406 571.710938 550.945312 C 572.179688 551.820312 572.691406 552.671875 573.242188 553.5 C 573.796875 554.328125 574.390625 555.125 575.019531 555.894531 C 575.652344 556.664062 576.316406 557.398438 577.023438 558.101562 C 577.726562 558.808594 578.460938 559.472656 579.230469 560.105469 C 580 560.734375 580.796875 561.328125 581.625 561.882812 C 582.453125 562.433594 583.304688 562.945312 584.179688 563.414062 C 585.058594 563.882812 585.957031 564.308594 586.875 564.6875 C 587.796875 565.070312 588.730469 565.402344 589.683594 565.691406 C 590.632812 565.980469 591.597656 566.222656 592.574219 566.417969 C 593.550781 566.609375 594.53125 566.757812 595.523438 566.855469 C 596.511719 566.953125 597.503906 567 598.5 567 L 841.5 567 C 842.496094 567 843.488281 566.953125 844.476562 566.855469 C 845.46875 566.757812 846.449219 566.609375 847.425781 566.417969 C 848.402344 566.222656 849.367188 565.980469 850.316406 565.691406 C 851.269531 565.402344 852.203125 565.070312 853.125 564.6875 C 854.042969 564.308594 854.941406 563.882812 855.820312 563.414062 C 856.695312 562.945312 857.546875 562.433594 858.375 561.882812 C 859.203125 561.328125 860 560.734375 860.769531 560.105469 C 861.539062 559.472656 862.273438 558.808594 862.976562 558.101562 C 863.683594 557.398438 864.347656 556.664062 864.980469 555.894531 C 865.609375 555.125 866.203125 554.328125 866.753906 553.5 C 867.308594 552.671875 867.820312 551.820312 868.289062 550.945312 C 868.757812 550.066406 869.183594 549.167969 869.5625 548.25 C 869.945312 547.328125 870.277344 546.394531 870.566406 545.441406 C 870.855469 544.492188 871.097656 543.527344 871.292969 542.550781 C 871.484375 541.574219 871.632812 540.59375 871.730469 539.601562 C 871.828125 538.613281 871.875 537.621094 871.875 536.625 L 871.875 384.75 L 851.625 384.75 Z M 851.625 536.625 "></path></g><g clip-rule="nonzero" clip-path="url(#47458055ab)"><path d="M 861.75 273.375 L 801 273.375 L 801 253.125 C 801 252.460938 800.933594 251.800781 800.804688 251.148438 C 800.675781 250.496094 800.484375 249.863281 800.230469 249.25 C 799.976562 248.636719 799.664062 248.050781 799.292969 247.5 C 798.925781 246.945312 798.503906 246.4375 798.035156 245.964844 C 797.5625 245.496094 797.054688 245.074219 796.5 244.707031 C 795.949219 244.335938 795.363281 244.023438 794.75 243.769531 C 794.136719 243.515625 793.503906 243.324219 792.851562 243.195312 C 792.199219 243.066406 791.539062 243 790.875 243 C 790.210938 243 789.550781 243.066406 788.898438 243.195312 C 788.246094 243.324219 787.613281 243.515625 787 243.769531 C 786.386719 244.023438 785.800781 244.335938 785.25 244.707031 C 784.695312 245.074219 784.1875 245.496094 783.714844 245.964844 C 783.246094 246.4375 782.824219 246.945312 782.457031 247.5 C 782.085938 248.050781 781.773438 248.636719 781.519531 249.25 C 781.265625 249.863281 781.074219 250.496094 780.945312 251.148438 C 780.816406 251.800781 780.75 252.460938 780.75 253.125 L 780.75 273.375 L 659.25 273.375 L 659.25 253.125 C 659.25 252.460938 659.183594 251.800781 659.054688 251.148438 C 658.925781 250.496094 658.734375 249.863281 658.480469 249.25 C 658.226562 248.636719 657.914062 248.050781 657.542969 247.5 C 657.175781 246.945312 656.753906 246.4375 656.285156 245.964844 C 655.8125 245.496094 655.304688 245.074219 654.75 244.707031 C 654.199219 244.335938 653.613281 244.023438 653 243.769531 C 652.386719 243.515625 651.753906 243.324219 651.101562 243.195312 C 650.449219 243.066406 649.789062 243 649.125 243 C 648.460938 243 647.800781 243.066406 647.148438 243.195312 C 646.496094 243.324219 645.863281 243.515625 645.25 243.769531 C 644.636719 244.023438 644.050781 244.335938 643.5 244.707031 C 642.945312 245.074219 642.4375 245.496094 641.964844 245.964844 C 641.496094 246.4375 641.074219 246.945312 640.707031 247.5 C 640.335938 248.050781 640.023438 248.636719 639.769531 249.25 C 639.515625 249.863281 639.324219 250.496094 639.195312 251.148438 C 639.066406 251.800781 639 252.460938 639 253.125 L 639 273.375 L 578.25 273.375 C 577.585938 273.375 576.925781 273.441406 576.273438 273.570312 C 575.621094 273.699219 574.988281 273.890625 574.375 274.144531 C 573.761719 274.398438 573.175781 274.710938 572.625 275.082031 C 572.070312 275.449219 571.5625 275.871094 571.089844 276.339844 C 570.621094 276.8125 570.199219 277.320312 569.832031 277.875 C 569.460938 278.425781 569.148438 279.011719 568.894531 279.625 C 568.640625 280.238281 568.449219 280.871094 568.320312 281.523438 C 568.191406 282.175781 568.125 282.835938 568.125 283.5 L 568.125 354.375 C 568.125 355.039062 568.191406 355.699219 568.320312 356.351562 C 568.449219 357.003906 568.640625 357.636719 568.894531 358.25 C 569.148438 358.863281 569.460938 359.449219 569.832031 360 C 570.199219 360.554688 570.621094 361.0625 571.089844 361.535156 C 571.5625 362.003906 572.070312 362.425781 572.625 362.792969 C 573.175781 363.164062 573.761719 363.476562 574.375 363.730469 C 574.988281 363.984375 575.621094 364.175781 576.273438 364.304688 C 576.925781 364.433594 577.585938 364.5 578.25 364.5 L 861.75 364.5 C 862.414062 364.5 863.074219 364.433594 863.726562 364.304688 C 864.378906 364.175781 865.011719 363.984375 865.625 363.730469 C 866.238281 363.476562 866.824219 363.164062 867.375 362.792969 C 867.929688 362.425781 868.4375 362.003906 868.910156 361.535156 C 869.378906 361.0625 869.800781 360.554688 870.167969 360 C 870.539062 359.449219 870.851562 358.863281 871.105469 358.25 C 871.359375 357.636719 871.550781 357.003906 871.679688 356.351562 C 871.808594 355.699219 871.875 355.039062 871.875 354.375 L 871.875 283.5 C 871.875 282.835938 871.808594 282.175781 871.679688 281.523438 C 871.550781 280.871094 871.359375 280.238281 871.105469 279.625 C 870.851562 279.011719 870.539062 278.425781 870.167969 277.875 C 869.800781 277.320312 869.378906 276.8125 868.910156 276.339844 C 868.4375 275.871094 867.929688 275.449219 867.375 275.082031 C 866.824219 274.710938 866.238281 274.398438 865.625 274.144531 C 865.011719 273.890625 864.378906 273.699219 863.726562 273.570312 C 863.074219 273.441406 862.414062 273.375 861.75 273.375 Z M 851.625 344.25 L 588.375 344.25 L 588.375 293.625 L 639 293.625 L 639 303.75 C 639 304.414062 639.066406 305.074219 639.195312 305.726562 C 639.324219 306.378906 639.515625 307.011719 639.769531 307.625 C 640.023438 308.238281 640.335938 308.824219 640.707031 309.375 C 641.074219 309.929688 641.496094 310.4375 641.964844 310.910156 C 642.4375 311.378906 642.945312 311.800781 643.5 312.167969 C 644.050781 312.539062 644.636719 312.851562 645.25 313.105469 C 645.863281 313.359375 646.496094 313.550781 647.148438 313.679688 C 647.800781 313.808594 648.460938 313.875 649.125 313.875 C 649.789062 313.875 650.449219 313.808594 651.101562 313.679688 C 651.753906 313.550781 652.386719 313.359375 653 313.105469 C 653.613281 312.851562 654.199219 312.539062 654.75 312.167969 C 655.304688 311.800781 655.8125 311.378906 656.285156 310.910156 C 656.753906 310.4375 657.175781 309.929688 657.542969 309.375 C 657.914062 308.824219 658.226562 308.238281 658.480469 307.625 C 658.734375 307.011719 658.925781 306.378906 659.054688 305.726562 C 659.183594 305.074219 659.25 304.414062 659.25 303.75 L 659.25 293.625 L 780.75 293.625 L 780.75 303.75 C 780.75 304.414062 780.816406 305.074219 780.945312 305.726562 C 781.074219 306.378906 781.265625 307.011719 781.519531 307.625 C 781.773438 308.238281 782.085938 308.824219 782.457031 309.375 C 782.824219 309.929688 783.246094 310.4375 783.714844 310.910156 C 784.1875 311.378906 784.695312 311.800781 785.25 312.167969 C 785.800781 312.539062 786.386719 312.851562 787 313.105469 C 787.613281 313.359375 788.246094 313.550781 788.898438 313.679688 C 789.550781 313.808594 790.210938 313.875 790.875 313.875 C 791.539062 313.875 792.199219 313.808594 792.851562 313.679688 C 793.503906 313.550781 794.136719 313.359375 794.75 313.105469 C 795.363281 312.851562 795.949219 312.539062 796.5 312.167969 C 797.054688 311.800781 797.5625 311.378906 798.035156 310.910156 C 798.503906 310.4375 798.925781 309.929688 799.292969 309.375 C 799.664062 308.824219 799.976562 308.238281 800.230469 307.625 C 800.484375 307.011719 800.675781 306.378906 800.804688 305.726562 C 800.933594 305.074219 801 304.414062 801 303.75 L 801 293.625 L 851.625 293.625 Z M 851.625 344.25 "></path></g><path d="M 704.40625 496.125 C 705.792969 496.105469 707.117188 495.816406 708.386719 495.253906 C 709.652344 494.691406 710.753906 493.902344 711.699219 492.886719 L 777.914062 422.011719 C 778.316406 421.515625 778.667969 420.988281 778.96875 420.429688 C 779.269531 419.871094 779.515625 419.289062 779.707031 418.679688 C 779.898438 418.074219 780.03125 417.457031 780.105469 416.824219 C 780.179688 416.195312 780.195312 415.5625 780.152344 414.925781 C 780.105469 414.292969 780.003906 413.667969 779.839844 413.054688 C 779.679688 412.441406 779.460938 411.84375 779.1875 411.273438 C 778.914062 410.699219 778.589844 410.15625 778.214844 409.644531 C 777.835938 409.128906 777.417969 408.65625 776.953125 408.222656 C 776.488281 407.789062 775.984375 407.40625 775.449219 407.066406 C 774.910156 406.726562 774.34375 406.441406 773.753906 406.210938 C 773.160156 405.976562 772.554688 405.800781 771.929688 405.683594 C 771.304688 405.566406 770.675781 405.507812 770.039062 405.507812 C 769.402344 405.507812 768.773438 405.570312 768.148438 405.6875 C 767.523438 405.808594 766.917969 405.984375 766.328125 406.21875 C 765.734375 406.453125 765.171875 406.738281 764.632812 407.078125 C 764.097656 407.417969 763.597656 407.804688 763.132812 408.238281 L 704.105469 471.421875 L 681.625 448.539062 C 681.175781 448.003906 680.675781 447.523438 680.125 447.09375 C 679.578125 446.664062 678.988281 446.296875 678.363281 445.988281 C 677.738281 445.679688 677.085938 445.4375 676.410156 445.265625 C 675.734375 445.089844 675.050781 444.988281 674.351562 444.957031 C 673.65625 444.925781 672.960938 444.964844 672.273438 445.078125 C 671.585938 445.1875 670.914062 445.367188 670.265625 445.617188 C 669.613281 445.867188 668.992188 446.183594 668.40625 446.558594 C 667.820312 446.9375 667.28125 447.371094 666.78125 447.859375 C 666.285156 448.351562 665.84375 448.886719 665.457031 449.46875 C 665.074219 450.046875 664.75 450.664062 664.492188 451.308594 C 664.230469 451.957031 664.042969 452.625 663.921875 453.3125 C 663.800781 454 663.75 454.691406 663.769531 455.386719 C 663.792969 456.085938 663.886719 456.773438 664.050781 457.453125 C 664.214844 458.128906 664.445312 458.785156 664.746094 459.414062 C 665.042969 460.042969 665.40625 460.636719 665.828125 461.191406 C 666.25 461.75 666.722656 462.253906 667.25 462.710938 L 697.625 493.085938 C 698.519531 494.003906 699.554688 494.726562 700.726562 495.25 C 701.898438 495.777344 703.125 496.066406 704.40625 496.125 Z M 704.40625 496.125 "></path></g></svg>

